<?xml version="1.0" encoding="UTF-8" standalone="no"?>
<svg
   width="187"
   height="196"
   viewBox="0 0 187 196"
   fill="none"
   version="1.1"
   id="svg6"
   sodipodi:docname="fill_hexagon.svg"
   inkscape:version="1.4.4 (dcaf3e7d9e, 2026-05-05)"
   xml:space="preserve"
   xmlns:inkscape="http://www.inkscape.org/namespaces/inkscape"
   xmlns:sodipodi="http://sodipodi.sourceforge.net/DTD/sodipodi-0.dtd"
   xmlns="http://www.w3.org/2000/svg"
   xmlns:svg="http://www.w3.org/2000/svg"><sodipodi:namedview
     id="namedview6"
     pagecolor="#505050"
     bordercolor="#ffffff"
     borderopacity="1"
     inkscape:showpageshadow="0"
     inkscape:pageopacity="0"
     inkscape:pagecheckerboard="1"
     inkscape:deskcolor="#505050"
     inkscape:zoom="4.1740946"
     inkscape:cx="35.337004"
     inkscape:cy="94.751086"
     inkscape:window-width="2560"
     inkscape:window-height="1366"
     inkscape:window-x="0"
     inkscape:window-y="0"
     inkscape:window-maximized="1"
     inkscape:current-layer="svg6"
     showguides="false" /><defs
     id="defs6"><inkscape:path-effect
       effect="fillet_chamfer"
       id="path-effect13"
       is_visible="true"
       lpeversion="1"
       nodesatellites_param="F,0,0,1,0,2.3347258,0,1 @ F,0,0,1,0,2.3347258,0,1 @ F,0,0,1,0,2.3347258,0,1 @ F,0,0,1,0,2.3347258,0,1 @ F,0,0,1,0,2.3347258,0,1"
       radius="8"
       unit="px"
       method="auto"
       mode="F"
       chamfer_steps="1"
       flexible="false"
       use_knot_distance="true"
       apply_no_radius="true"
       apply_with_radius="true"
       only_selected="false"
       hide_knots="false" /><inkscape:path-effect
       effect="fillet_chamfer"
       id="path-effect12"
       is_visible="true"
       lpeversion="1"
       nodesatellites_param="F,0,0,1,0,1.903309,0,1 @ F,0,0,1,0,1.903309,0,1 @ F,0,0,1,0,1.903309,0,1 @ F,0,0,1,0,1.903309,0,1 @ F,0,0,1,0,1.903309,0,1"
       radius="6"
       unit="px"
       method="auto"
       mode="F"
       chamfer_steps="1"
       flexible="false"
       use_knot_distance="true"
       apply_no_radius="true"
       apply_with_radius="true"
       only_selected="false"
       hide_knots="false" /><inkscape:path-effect
       effect="fillet_chamfer"
       id="path-effect11"
       is_visible="true"
       lpeversion="1"
       nodesatellites_param="F,0,0,1,0,1.4088863,0,1 @ F,0,0,1,0,1.4088863,0,1 @ F,0,0,1,0,1.4088863,0,1 @ F,0,0,1,0,1.4088863,0,1 @ F,0,0,1,0,1.4088863,0,1"
       radius="4"
       unit="px"
       method="auto"
       mode="F"
       chamfer_steps="1"
       flexible="false"
       use_knot_distance="true"
       apply_no_radius="true"
       apply_with_radius="true"
       only_selected="false"
       hide_knots="false" /><linearGradient
       id="paint0_linear_910_101"
       x1="20.5"
       y1="171"
       x2="166.5"
       y2="171"
       gradientUnits="userSpaceOnUse"><stop
         stop-color="#D6FF5A"
         id="stop3" /><stop
         offset="1"
         stop-color="#66CC11"
         id="stop4" /></linearGradient><linearGradient
       id="paint1_linear_910_101"
       x1="20.5"
       y1="98.2955"
       x2="166.5"
       y2="98.2955"
       gradientUnits="userSpaceOnUse"><stop
         stop-color="#90FF44"
         id="stop5" /><stop
         offset="1"
         stop-color="#449906"
         id="stop6" /></linearGradient><clipPath
       clipPathUnits="userSpaceOnUse"
       id="clipPath16"><path
         id="path16"
         style="fill:#0000ff;stroke-width:0.35219"
         inkscape:label="mask"
         transform="matrix(0,-2.8783348,2.8009633,0,-43.628581,227.00228)"
         d="M 69.178423,50.097462 52.076259,73.636573 a 1.9391656,1.9391656 162 0 1 -2.168053,0.704443 L 22.23632,65.349876 A 1.9391656,1.9391656 54 0 1 20.89639,63.50562 V 34.409678 a 1.9391656,1.9391656 126 0 1 1.33993,-1.844256 l 27.671886,-8.99114 a 1.9391656,1.9391656 18 0 1 2.168053,0.704443 l 17.102164,23.539111 a 1.9391657,1.9391657 90 0 1 0,2.279626 z"
         inkscape:original-d="M 70.006546,48.957649 51.248136,74.776386 20.89639,64.914506 V 33.000792 l 30.351746,-9.86188 z"
         inkscape:path-effect="#path-effect11" /></clipPath><clipPath
       clipPathUnits="userSpaceOnUse"
       id="clipPath17"><path
         id="path17"
         style="fill:#0000ff;stroke-width:0.35219"
         inkscape:label="mask"
         transform="matrix(0,-2.8783348,2.8009633,0,-43.628581,227.00228)"
         d="M 69.178423,50.097462 52.076259,73.636573 a 1.9391656,1.9391656 162 0 1 -2.168053,0.704443 L 22.23632,65.349876 A 1.9391656,1.9391656 54 0 1 20.89639,63.50562 V 34.409678 a 1.9391656,1.9391656 126 0 1 1.33993,-1.844256 l 27.671886,-8.99114 a 1.9391656,1.9391656 18 0 1 2.168053,0.704443 l 17.102164,23.539111 a 1.9391657,1.9391657 90 0 1 0,2.279626 z"
         inkscape:original-d="M 70.006546,48.957649 51.248136,74.776386 20.89639,64.914506 V 33.000792 l 30.351746,-9.86188 z"
         inkscape:path-effect="#path-effect11" /></clipPath></defs><path
     id="path6"
     style="display:none;fill:#ffffff;stroke-width:0.291814"
     transform="matrix(0,-3.4738524,3.380473,0,-72.000012,253.69241)"
     d="M 68.634229,50.846482 52.620453,72.887553 A 3.2134744,3.2134744 162 0 1 49.02768,74.054916 L 23.116846,65.635976 A 3.2134744,3.2134744 54 0 1 20.89639,62.57978 V 35.335518 a 3.2134744,3.2134744 126 0 1 2.220456,-3.056196 l 25.910834,-8.41894 a 3.2134744,3.2134744 18 0 1 3.592773,1.167363 l 16.013776,22.041071 a 3.2134745,3.2134745 90 0 1 0,3.777666 z"
     inkscape:path-effect="#path-effect13"
     inkscape:original-d="M 70.006546,48.957649 51.248136,74.776386 20.89639,64.914506 V 33.000792 l 30.351746,-9.86188 z" /><path
     id="path6-6"
     style="display:none;fill:#000000;stroke-width:0.31719"
     transform="matrix(0,-3.1959442,3.1100352,0,-58.760012,241.23701)"
     d="M 68.887809,50.497458 52.366873,73.236577 a 2.6196801,2.6196801 162 0 1 -2.928891,0.951654 L 22.706544,65.502661 A 2.6196801,2.6196801 54 0 1 20.89639,63.011197 l 0,-28.107096 a 2.6196801,2.6196801 126 0 1 1.810154,-2.491464 l 26.731438,-8.68557 a 2.6196801,2.6196801 18 0 1 2.928891,0.951654 L 68.887809,47.41784 a 2.6196802,2.6196802 90 0 1 0,3.079618 z"
     inkscape:path-effect="#path-effect12"
     inkscape:original-d="M 70.006546,48.957649 51.248136,74.776386 20.89639,64.914506 V 33.000792 l 30.351746,-9.86188 z" /><rect
     x="20.5"
     y="25"
     width="146"
     height="146"
     rx="12"
     fill="url(#paint0_linear_910_101)"
     id="rect3"
     style="display:inline"
     clip-path="url(#clipPath17)" /><path
     d="m 20.5,98 h 146 v 61 a 12,12 0 0 1 -12,12 h -122 a 12,12 0 0 1 -12,-12 z"
     fill="url(#paint1_linear_910_101)"
     id="path3"
     style="display:inline"
     clip-path="url(#clipPath16)" /></svg>
