<?xml version="1.0" encoding="UTF-8" standalone="no"?>
<svg
   width="187"
   height="196"
   viewBox="0 0 187 196"
   fill="none"
   version="1.1"
   id="svg5"
   sodipodi:docname="outline_circle.svg"
   inkscape:version="1.4.4 (dcaf3e7d9e, 2026-05-05)"
   xmlns:inkscape="http://www.inkscape.org/namespaces/inkscape"
   xmlns:sodipodi="http://sodipodi.sourceforge.net/DTD/sodipodi-0.dtd"
   xmlns="http://www.w3.org/2000/svg"
   xmlns:svg="http://www.w3.org/2000/svg">
  <sodipodi:namedview
     id="namedview5"
     pagecolor="#505050"
     bordercolor="#ffffff"
     borderopacity="1"
     inkscape:showpageshadow="0"
     inkscape:pageopacity="0"
     inkscape:pagecheckerboard="1"
     inkscape:deskcolor="#505050"
     inkscape:zoom="5.9030612"
     inkscape:cx="93.510804"
     inkscape:cy="98"
     inkscape:window-width="2560"
     inkscape:window-height="1366"
     inkscape:window-x="0"
     inkscape:window-y="0"
     inkscape:window-maximized="1"
     inkscape:current-layer="svg5" />
  <path
     id="ellipse1"
     style="display:inline;fill:#ffffff"
     d="M 93.5 11 A 87.5 87 0 0 0 6 98 A 87.5 87 0 0 0 93.5 185 A 87.5 87 0 0 0 181 98 A 87.5 87 0 0 0 93.5 11 z M 93.5 25 A 73 73 0 0 1 166.5 98 A 73 73 0 0 1 93.5 171 A 73 73 0 0 1 20.5 98 A 73 73 0 0 1 93.5 25 z " />
  <path
     id="ellipse2"
     style="display:inline;fill:#000000"
     d="M 93.5 17 A 80.5 81 0 0 0 13 98 A 80.5 81 0 0 0 93.5 179 A 80.5 81 0 0 0 174 98 A 80.5 81 0 0 0 93.5 17 z M 93.5 25 A 73 73 0 0 1 166.5 98 A 73 73 0 0 1 93.5 171 A 73 73 0 0 1 20.5 98 A 73 73 0 0 1 93.5 25 z " />
  <path
     d="m 93.5,171 c 40.317,0 73,-32.683 73,-73 h -146 c 0,40.317 32.6832,73 73,73 z"
     fill="url(#paint1_linear_910_101)"
     id="path2"
     style="display:none" />
  <defs
     id="defs5">
    <linearGradient
       id="paint0_linear_910_101"
       x1="20.5"
       y1="171"
       x2="166.5"
       y2="171"
       gradientUnits="userSpaceOnUse">
      <stop
         stop-color="#D6FF5A"
         id="stop2" />
      <stop
         offset="1"
         stop-color="#66CC11"
         id="stop3" />
    </linearGradient>
    <linearGradient
       id="paint1_linear_910_101"
       x1="20.5"
       y1="98.2955"
       x2="166.5"
       y2="98.2955"
       gradientUnits="userSpaceOnUse">
      <stop
         stop-color="#90FF44"
         id="stop4" />
      <stop
         offset="1"
         stop-color="#449906"
         id="stop5" />
    </linearGradient>
  </defs>
</svg>
