<?xml version="1.0" encoding="UTF-8" standalone="no"?>
<svg
   width="187"
   height="196"
   viewBox="0 0 187 196"
   fill="none"
   version="1.1"
   id="svg6"
   sodipodi:docname="outline_hexagon.svg"
   inkscape:version="1.4.4 (dcaf3e7d9e, 2026-05-05)"
   xml:space="preserve"
   xmlns:inkscape="http://www.inkscape.org/namespaces/inkscape"
   xmlns:sodipodi="http://sodipodi.sourceforge.net/DTD/sodipodi-0.dtd"
   xmlns="http://www.w3.org/2000/svg"
   xmlns:svg="http://www.w3.org/2000/svg"><sodipodi:namedview
     id="namedview6"
     pagecolor="#505050"
     bordercolor="#ffffff"
     borderopacity="1"
     inkscape:showpageshadow="0"
     inkscape:pageopacity="0"
     inkscape:pagecheckerboard="1"
     inkscape:deskcolor="#505050"
     inkscape:zoom="4.1740946"
     inkscape:cx="35.456791"
     inkscape:cy="94.751087"
     inkscape:window-width="2560"
     inkscape:window-height="1366"
     inkscape:window-x="0"
     inkscape:window-y="0"
     inkscape:window-maximized="1"
     inkscape:current-layer="svg6"
     showguides="false" /><defs
     id="defs6"><inkscape:path-effect
       effect="fillet_chamfer"
       id="path-effect2"
       is_visible="true"
       lpeversion="1"
       nodesatellites_param="F,0,0,1,0,1.4088863,0,1 @ F,0,0,1,0,1.4088863,0,1 @ F,0,0,1,0,1.4088863,0,1 @ F,0,0,1,0,1.4088863,0,1 @ F,0,0,1,0,1.4088863,0,1"
       radius="4"
       unit="px"
       method="auto"
       mode="F"
       chamfer_steps="1"
       flexible="false"
       use_knot_distance="true"
       apply_no_radius="true"
       apply_with_radius="true"
       only_selected="false"
       hide_knots="false" /><inkscape:path-effect
       effect="fillet_chamfer"
       id="path-effect13"
       is_visible="true"
       lpeversion="1"
       nodesatellites_param="F,0,0,1,0,2.3347258,0,1 @ F,0,0,1,0,2.3347258,0,1 @ F,0,0,1,0,2.3347258,0,1 @ F,0,0,1,0,2.3347258,0,1 @ F,0,0,1,0,2.3347258,0,1"
       radius="8"
       unit="px"
       method="auto"
       mode="F"
       chamfer_steps="1"
       flexible="false"
       use_knot_distance="true"
       apply_no_radius="true"
       apply_with_radius="true"
       only_selected="false"
       hide_knots="false" /><inkscape:path-effect
       effect="fillet_chamfer"
       id="path-effect12"
       is_visible="true"
       lpeversion="1"
       nodesatellites_param="F,0,0,1,0,1.903309,0,1 @ F,0,0,1,0,1.903309,0,1 @ F,0,0,1,0,1.903309,0,1 @ F,0,0,1,0,1.903309,0,1 @ F,0,0,1,0,1.903309,0,1"
       radius="6"
       unit="px"
       method="auto"
       mode="F"
       chamfer_steps="1"
       flexible="false"
       use_knot_distance="true"
       apply_no_radius="true"
       apply_with_radius="true"
       only_selected="false"
       hide_knots="false" /><inkscape:path-effect
       effect="fillet_chamfer"
       id="path-effect11"
       is_visible="true"
       lpeversion="1"
       nodesatellites_param="F,0,0,1,0,1.4088863,0,1 @ F,0,0,1,0,1.4088863,0,1 @ F,0,0,1,0,1.4088863,0,1 @ F,0,0,1,0,1.4088863,0,1 @ F,0,0,1,0,1.4088863,0,1"
       radius="4"
       unit="px"
       method="auto"
       mode="F"
       chamfer_steps="1"
       flexible="false"
       use_knot_distance="true"
       apply_no_radius="true"
       apply_with_radius="true"
       only_selected="false"
       hide_knots="false" /><linearGradient
       id="paint0_linear_910_101"
       x1="20.5"
       y1="171"
       x2="166.5"
       y2="171"
       gradientUnits="userSpaceOnUse"><stop
         stop-color="#D6FF5A"
         id="stop3" /><stop
         offset="1"
         stop-color="#66CC11"
         id="stop4" /></linearGradient><linearGradient
       id="paint1_linear_910_101"
       x1="20.5"
       y1="98.2955"
       x2="166.5"
       y2="98.2955"
       gradientUnits="userSpaceOnUse"><stop
         stop-color="#90FF44"
         id="stop5" /><stop
         offset="1"
         stop-color="#449906"
         id="stop6" /></linearGradient><clipPath
       clipPathUnits="userSpaceOnUse"
       id="clipPath16"><path
         id="path16"
         style="fill:#0000ff;stroke-width:0.35219"
         inkscape:label="mask"
         transform="matrix(0,-2.8783348,2.8009633,0,-43.628581,227.00228)"
         d="M 69.178423,50.097462 52.076259,73.636573 a 1.9391656,1.9391656 162 0 1 -2.168053,0.704443 L 22.23632,65.349876 A 1.9391656,1.9391656 54 0 1 20.89639,63.50562 V 34.409678 a 1.9391656,1.9391656 126 0 1 1.33993,-1.844256 l 27.671886,-8.99114 a 1.9391656,1.9391656 18 0 1 2.168053,0.704443 l 17.102164,23.539111 a 1.9391657,1.9391657 90 0 1 0,2.279626 z"
         inkscape:original-d="M 70.006546,48.957649 51.248136,74.776386 20.89639,64.914506 V 33.000792 l 30.351746,-9.86188 z"
         inkscape:path-effect="#path-effect11" /></clipPath></defs><path
     id="path6"
     style="display:inline;fill:#ffffff;stroke-width:0.291814"
     d="M 69.240219 48.733476 A 3.2134745 3.2134745 0 0 0 68.634128 47.06893 L 52.620522 25.027705 A 3.2134744 3.2134744 0 0 0 49.027833 23.860616 L 23.116624 32.279256 A 3.2134744 3.2134744 0 0 0 20.896353 35.335642 L 20.896353 62.579657 A 3.2134744 3.2134744 0 0 0 23.116624 65.636043 L 49.027833 74.054683 A 3.2134744 3.2134744 0 0 0 52.620522 72.887594 L 68.634128 50.846369 A 3.2134745 3.2134745 0 0 0 69.240219 48.733476 z M 65.305129 48.845563 A 1.6067373 1.6067373 0 0 1 65.002646 49.902298 L 50.832049 69.405971 A 1.6067372 1.6067372 0 0 1 49.035705 69.989516 L 26.107719 62.539791 A 1.6067372 1.6067372 0 0 1 24.997303 61.011598 L 24.997303 36.903701 A 1.6067372 1.6067372 0 0 1 26.107719 35.375508 L 49.035705 27.925783 A 1.6067372 1.6067372 0 0 1 50.832049 28.509328 L 65.002646 48.013001 A 1.6067373 1.6067373 0 0 1 65.305129 48.845563 z "
     transform="matrix(0,-3.4738524,3.380473,0,-72.000012,253.69241)" /><path
     id="path6-6"
     style="display:inline;fill:#000000;stroke-width:0.31719"
     d="M 69.381974 48.774899 A 2.6196802 2.6196802 0 0 0 68.887573 47.417775 L 52.367 24.678885 A 2.6196801 2.6196801 0 0 0 49.437872 23.726825 L 22.706605 32.412795 A 2.6196801 2.6196801 0 0 0 20.896449 34.9041 L 20.896449 63.011198 A 2.6196801 2.6196801 0 0 0 22.706605 65.502503 L 49.437872 74.188473 A 2.6196801 2.6196801 0 0 0 52.367 73.236414 L 68.887573 50.497523 A 2.6196802 2.6196802 0 0 0 69.381974 48.774899 z M 67.086584 48.835816 A 1.7464535 1.7464535 0 0 1 66.757798 49.984441 L 51.354975 71.184086 A 1.7464535 1.7464535 0 0 1 49.402427 71.818373 L 24.480704 63.720846 A 1.7464535 1.7464535 0 0 1 23.27373 62.059767 L 23.27373 35.855532 A 1.7464535 1.7464535 0 0 1 24.480704 34.194452 L 49.402427 26.096925 A 1.7464535 1.7464535 0 0 1 51.354975 26.731213 L 66.757798 47.930857 A 1.7464535 1.7464535 0 0 1 67.086584 48.835816 z "
     transform="matrix(0,-3.1959442,3.1100352,0,-58.760012,241.23701)" /></svg>
